<svg width="68" height="68" viewBox="0 0 68 68" fill="none" xmlns="http://www.w3.org/2000/svg">
<g clip-path="url(#clip0)">
<path d="M34.1 0C15.3 0 0 15.2 0 34C0 52.7 15.1 67.9 33.9 68C52.6 68.1 67.9 52.9 68 34.1C68.1 15.4 52.9 0.1 34.1 0ZM33.9 66C16.2 65.9 2 51.6 2 34C2 16.3 16.4 2 34.1 2C51.8 2.1 66.1 16.5 66 34.1C65.9 51.8 51.5 66.1 33.9 66Z" fill="#B2CFE7"/>
<path d="M42.2 32.8C42 32.6 41.7 32.5 41.5 32.5H28.6L42.2 17.1C42.6 16.7 42.6 16.1 42.2 15.7C41.8 15.3 41.2 15.3 40.8 15.7L25.8 32.9C25.4 33.3 25.4 33.9 25.8 34.2C26 34.4 26.3 34.5 26.5 34.5H39.4L25.8 50.8C25.4 51.2 25.4 51.8 25.8 52.2C26.2 52.6 26.8 52.5 27.1 52.2L42.2 34.2C42.6 33.9 42.6 33.2 42.2 32.8Z" fill="#005FAF"/>
</g>
<defs>
<clipPath id="clip0">
<rect width="68" height="68" fill="white"/>
</clipPath>
</defs>
</svg>
