<svg width="191" height="33" viewBox="0 0 191 33" fill="none" xmlns="http://www.w3.org/2000/svg">
<g clip-path="url(#clip0)">
<path fill-rule="evenodd" clip-rule="evenodd" d="M89.2 8.4C91.8 8.4 94.2 9.5 96 11.3L93 14.9C92 13.9 90.7 13.3 89.2 13.3C86.1 13.3 83.7 16 83.7 19.4C83.7 22.8 86.2 25.5 89.2 25.5C90.7 25.5 92 24.9 93 23.9L96 27.5C94.2 29.3 91.8 30.4 89.2 30.4C83.7 30.4 79.2 25.5 79.2 19.4C79.2 13.3 83.7 8.4 89.2 8.4ZM68.7 21.8H67V30.4H62.6V8.4H67V17H68.7L74.7 8.4H80.2L72.4 19.4L80.2 30.4H74.7L68.7 21.8ZM104.8 18.3H102.8V30.4H98.1V1H102.8V13.1H104.9L113.6 1H119.4L108.7 15.7L119.4 30.4H113.6L104.8 18.3ZM126.8 13.3C129.9 13.3 132.3 16 132.3 19.4C132.3 22.8 129.8 25.5 126.8 25.5C123.7 25.5 121.3 22.8 121.3 19.4C121.3 16 123.8 13.3 126.8 13.3ZM126.9 8.4C132.4 8.4 136.9 13.3 136.9 19.4C136.9 25.5 132.4 30.4 126.9 30.4C121.4 30.4 116.9 25.5 116.9 19.4C117 13.3 121.4 8.4 126.9 8.4ZM151.3 8.4H155.7V30.5H151.3V21.9H143.5V30.5H139.1V8.4H143.5V17H151.3V8.4ZM173.5 13.3H168V30.5H163.6V13.3H158V8.4H163.5H167.9H173.4V13.3H173.5ZM47.1 1C54.5 1 60.4 7.6 60.4 15.7C60.4 23.8 54.4 30.4 47.1 30.4C43.6 30.4 40.4 28.9 38 26.5L41.2 22.7C42.7 24.3 44.8 25.3 47.1 25.3C51.1 25.3 54.4 22.3 55.4 18.3H44.8V13.1H55.4C54.4 9.1 51 6.1 47.1 6.1C44.8 6.1 42.8 7.1 41.2 8.7L38 4.9C40.4 2.5 43.6 1 47.1 1Z" fill="#0263B0"/>
</g>
<g clip-path="url(#clip1)">
<path d="M26.7 0.7H3C2.4 0.7 1.8 1 1.4 1.4C1 1.8 0.7 2.4 0.7 3V29.1C0.7 29.7 1 30.3 1.4 30.7C1.8 31.1 2.4 31.4 3 31.4H26.7C27.3 31.4 27.9 31.1 28.3 30.7C28.7 30.3 29 29.7 29 29.1V3C29 2.4 28.7 1.8 28.3 1.4C27.9 1 27.3 0.7 26.7 0.7ZM3 0H26.7C27.5 0 28.3 0.3 28.8 0.9C29.3 1.4 29.7 2.2 29.7 3V29.1C29.7 29.9 29.4 30.7 28.8 31.2C28.3 31.7 27.5 32.1 26.7 32.1H3C2.2 32.1 1.4 31.8 0.9 31.2C0.3 30.7 0 29.9 0 29.1V3C0 2.2 0.3 1.4 0.9 0.9C1.4 0.3 2.2 0 3 0Z" fill="#0263B0"/>
<path d="M3.0001 1.59998H26.7001C27.1001 1.59998 27.4001 1.79998 27.7001 1.99998C28.0001 2.29998 28.1001 2.59998 28.1001 2.99998V29.1C28.1001 29.5 27.9001 29.8 27.7001 30.1C27.4001 30.4 27.1001 30.5 26.7001 30.5H3.0001C2.6001 30.5 2.3001 30.3 2.0001 30.1C1.7001 29.8 1.6001 29.5 1.6001 29.1V2.99998C1.6001 2.59998 1.8001 2.29998 2.0001 1.99998C2.3001 1.79998 2.6001 1.59998 3.0001 1.59998Z" fill="#0263B0"/>
<path fill-rule="evenodd" clip-rule="evenodd" d="M19.2001 10.2L22.6001 7.4V5.9L19.2001 8.7V4.5L15.0001 8V22.3L19.2001 18.8V23.8L22.6001 21V16L19.2001 18.8V16.1L22.6001 13.3V11.8L19.2001 14.6V13.1L22.6001 10.3V8.9L19.2001 11.7V10.2ZM9.5001 26.8L13.7001 23.3V9L9.5001 12.5V16.7L6.1001 19.5V21L9.5001 18.2V19.7L6.1001 22.5V24L9.5001 21.2V22.7L6.1001 25.5V27L9.5001 24.2V26.8Z" fill="white"/>
<path d="M6.2001 6.10002H5.8001V5.50002H6.2001C6.3001 5.50002 6.3001 5.50002 6.4001 5.50002L6.5001 5.60002C6.5001 5.60002 6.5001 5.70002 6.5001 5.80002C6.5001 5.90002 6.5001 5.90002 6.5001 6.00002L6.4001 6.10002C6.3001 6.10002 6.3001 6.10002 6.2001 6.10002ZM6.8001 6.90002L6.3001 6.30002C6.4001 6.30002 6.4001 6.30002 6.5001 6.30002L6.6001 6.20002L6.7001 6.10002C6.7001 6.00002 6.7001 6.00002 6.7001 5.90002C6.7001 5.80002 6.7001 5.80002 6.7001 5.70002C6.7001 5.60002 6.6001 5.60002 6.6001 5.50002C6.6001 5.50002 6.5001 5.40002 6.4001 5.40002C6.3001 5.40002 6.3001 5.40002 6.2001 5.40002H5.6001V7.00002H5.8001V6.30002H6.1001L6.5001 6.90002H6.8001V6.90002Z" fill="white"/>
<path fill-rule="evenodd" clip-rule="evenodd" d="M6.0999 4.59999C6.8999 4.59999 7.5999 5.29999 7.5999 6.09999C7.5999 6.89999 6.8999 7.59999 6.0999 7.59999C5.2999 7.59999 4.5999 6.89999 4.5999 6.09999C4.5999 5.19999 5.2999 4.59999 6.0999 4.59999ZM6.0999 4.29999C7.0999 4.29999 7.7999 5.09999 7.7999 5.99999C7.7999 6.99999 6.9999 7.69999 6.0999 7.69999C5.0999 7.69999 4.3999 6.89999 4.3999 5.99999C4.3999 5.09999 5.1999 4.29999 6.0999 4.29999Z" fill="white"/>
</g>
<path d="M182.164 3.2959H180.107V9H179.268V3.2959H177.215V2.60156H182.164V3.2959ZM184.203 2.60156L186.294 7.82227L188.386 2.60156H189.48V9H188.637V6.5083L188.716 3.81885L186.615 9H185.969L183.873 3.83203L183.957 6.5083V9H183.113V2.60156H184.203Z" fill="#0263B0"/>
<defs>
<clipPath id="clip0">
<rect x="38" y="1" width="135.5" height="29.4" fill="white"/>
</clipPath>
<clipPath id="clip1">
<rect width="29.7" height="32.1" fill="white"/>
</clipPath>
</defs>
</svg>
